<?xml version="1.0" standalone="no"?>
<!DOCTYPE svg PUBLIC "-//W3C//DTD SVG 20010904//EN"
 "http://www.w3.org/TR/2001/REC-SVG-20010904/DTD/svg10.dtd">
<svg version="1.0" xmlns="http://www.w3.org/2000/svg"
 width="110" height="109" viewBox="0 0 1049.000000 1280.000000"
 preserveAspectRatio="xMidYMid meet">
<metadata>
Created by potrace 1.15, written by Peter Selinger 2001-2017
</metadata>
<g transform="translate(0.000000,1280.000000) scale(0.100000,-0.100000)"
fill="#ffff8c" stroke="none">
<path d="M6015 12789 c-740 -46 -1469 -219 -2145 -509 -284 -121 -817 -407
-985 -528 -22 -15 -108 -77 -191 -136 -179 -126 -366 -275 -521 -412 -163
-144 -375 -344 -398 -375 -11 -15 -63 -74 -115 -131 -1223 -1342 -1815 -3153
-1624 -4968 153 -1459 796 -2809 1835 -3849 665 -665 1429 -1156 2315 -1486
406 -151 865 -268 1304 -330 341 -48 510 -59 900 -59 374 -1 519 8 810 45 85
11 182 23 215 25 33 3 121 19 195 35 707 160 1097 293 1625 554 386 191 672
366 1000 612 261 196 285 223 237 271 -17 17 -43 20 -233 25 -1742 51 -3386
839 -4545 2177 -1184 1368 -1717 3206 -1453 5010 218 1494 969 2854 2124 3849
116 100 115 98 115 132 0 52 -22 59 -186 58 -82 -1 -207 -6 -279 -10z"/>
</g>
<path fill-rule="evenodd" clip-rule="evenodd" d="M97.5 87H48V86.993C47.8339 86.9977 47.6672 87 47.5 87C37.835 87 30 79.165 30 69.5C30 59.9469 37.6547 52.1816 47.1651 52.0031C47.056 51.0171 47 50.0151 47 49C47 34.0883 59.0883 22 74 22C85.005 22 94.4721 28.584 98.6774 38.0278C111.662 38.6421 122 49.3637 122 62.5C122 75.8639 111.3 86.7288 98 86.995V87H97.5Z" fill="white"/>
</svg>