<svg width="113" height="112" viewBox="0 0 113 112" fill="none" xmlns="http://www.w3.org/2000/svg">
<path d="M55.5 37L68.9234 44.75V60.25L55.5 68L42.0766 60.25V44.75L55.5 37Z" fill="#F2F2F2"/>
<rect x="53" width="6" height="56" fill="#F2F2F2"/>
<path d="M64.5 3L69.6962 6L58.1962 25.9186L53 22.9186L64.5 3Z" fill="#F2F2F2"/>
<rect x="42" y="6.04077" width="6" height="23" transform="rotate(-30 42 6.04077)" fill="#F2F2F2"/>
<path d="M56.196 75L42.7727 67.25V51.75L56.196 44L69.6194 51.75V67.25L56.196 75Z" fill="#F2F2F2"/>
<rect x="58.696" y="112" width="6" height="56" transform="rotate(-180 58.696 112)" fill="#F2F2F2"/>
<path d="M47.196 109L41.9999 106L53.4999 86.0814L58.696 89.0814L47.196 109Z" fill="#F2F2F2"/>
<rect x="69.696" y="105.959" width="6" height="23" transform="rotate(150 69.696 105.959)" fill="#F2F2F2"/>
<path d="M39.793 47.6602L53.2164 39.9102L66.6398 47.6602L66.6398 63.1602L53.2164 70.9102L39.793 63.1602L39.793 47.6602Z" fill="#F2F2F2"/>
<rect x="6.5" y="31.3253" width="6" height="56" transform="rotate(-60 6.5 31.3253)" fill="#F2F2F2"/>
<path d="M14.8481 22.866L20.0442 19.866L31.5442 39.7846L26.3481 42.7846L14.8481 22.866Z" fill="#F2F2F2"/>
<rect x="6.23138" y="43.8719" width="6" height="23" transform="rotate(-90 6.23138 43.8719)" fill="#F2F2F2"/>
<path d="M72.5967 46.1913L72.5967 61.6913L59.1733 69.4413L45.7499 61.6913L45.7499 46.1913L59.1733 38.4413L72.5967 46.1913Z" fill="#F2F2F2"/>
<rect x="103.39" y="25.5262" width="6" height="56" transform="rotate(60 103.39 25.5262)" fill="#F2F2F2"/>
<path d="M106.542 36.9856V42.9856H83.5416V36.9856L106.542 36.9856Z" fill="#F2F2F2"/>
<rect x="92.6583" y="19.0204" width="6" height="23" transform="rotate(30 92.6583 19.0204)" fill="#F2F2F2"/>
<path d="M72.4448 65.1913L59.0214 72.9413L45.598 65.1913L45.598 49.6913L59.0214 41.9413L72.4448 49.6913L72.4448 65.1913Z" fill="#F2F2F2"/>
<rect x="105.738" y="81.5263" width="6" height="56" transform="rotate(120 105.738 81.5263)" fill="#F2F2F2"/>
<path d="M97.3897 89.9856L92.1936 92.9856L80.6936 73.067L85.8897 70.067L97.3897 89.9856Z" fill="#F2F2F2"/>
<rect x="106.006" y="68.9796" width="6" height="23" transform="rotate(90 106.006 68.9796)" fill="#F2F2F2"/>
<path d="M39.6411 65.6603L39.6411 50.1603L53.0645 42.4103L66.4879 50.1603L66.4879 65.6603L53.0645 73.4103L39.6411 65.6603Z" fill="#F2F2F2"/>
<rect x="8.84814" y="86.3253" width="6" height="56" transform="rotate(-120 8.84814 86.3253)" fill="#F2F2F2"/>
<path d="M5.69623 74.866V68.866H28.6962V74.866L5.69623 74.866Z" fill="#F2F2F2"/>
<rect x="19.5795" y="92.8313" width="6" height="23" transform="rotate(-150 19.5795 92.8313)" fill="#F2F2F2"/>
</svg>
