<svg width="114" height="101" viewBox="0 0 114 101" fill="none" xmlns="http://www.w3.org/2000/svg">
<path fill-rule="evenodd" clip-rule="evenodd" d="M89.5 65H40V64.993C39.8339 64.9977 39.6672 65 39.5 65C29.835 65 22 57.165 22 47.5C22 37.9469 29.6547 30.1816 39.1651 30.0031C39.056 29.0171 39 28.0151 39 27C39 12.0883 51.0883 0 66 0C77.005 0 86.4721 6.58398 90.6774 16.0278C103.662 16.6421 114 27.3637 114 40.5C114 53.8639 103.3 64.7288 90 64.995V65H89.5Z" fill="#F2F2F2"/>
<path fill-rule="evenodd" clip-rule="evenodd" d="M67.5 76H18V75.993C17.8339 75.9977 17.6672 76 17.5 76C7.83502 76 0 68.165 0 58.5C0 48.9469 7.65469 41.1816 17.1651 41.0031C17.056 40.0171 17 39.0151 17 38C17 23.0883 29.0883 11 44 11C55.005 11 64.4721 17.584 68.6774 27.0278C81.6616 27.6421 92 38.3637 92 51.5C92 64.8639 81.3002 75.7288 68 75.995V76H67.5Z" fill="white"/>
<path d="M37.0656 54H52L32 83H23L37.0656 54Z" fill="#F2994A"/>
<path d="M36.0656 72H51L26.5 101H22L36.0656 72Z" fill="#F2994A"/>
</svg>
